<?xml version="1.0" encoding="UTF-8"?>
<svg width="128px" height="128px" viewBox="0 0 128 128" version="1.1" xmlns="http://www.w3.org/2000/svg" xmlns:xlink="http://www.w3.org/1999/xlink">
    <!-- Generator: Sketch 60 (88103) - https://sketch.com -->
    <title>Home Card/Icon/Adventure@2x</title>
    <desc>Created with Sketch.</desc>
    <g id="Home-Card/Icon/Adventure" stroke="none" stroke-width="1" fill="none" fill-rule="evenodd">
        <g id="travel" transform="translate(3.000000, 0.000000)" fill-rule="nonzero">
            <path d="M113.102539,99.359375 C119.053711,89.9169922 122.5,78.736328 122.5,66.75 C122.5,32.9228515 95.0771485,5.5 61.25,5.5 C27.4228515,5.5 0,32.921875 0,66.75 C0,78.7373047 3.446289,89.9179688 9.3984375,99.3603515 L113.102539,99.359375 Z" id="Path" fill="#E8E7FF"></path>
            <path d="M55.7861328,39.8515625 C55.59375,39.8515625 55.397461,39.8222655 55.2021485,39.7626953 C46.654297,37.1035155 40.9111328,29.2978515 40.9111328,20.3388672 C40.9111328,9.1240235 50.0351563,0 61.25,0 C72.4648438,0 81.5888672,9.1240235 81.5888672,20.3388672 C81.5888672,29.2197265 75.9101562,37.0048828 67.4589845,39.7109375 C66.4248047,40.0419922 65.3203125,39.4726562 64.9892577,38.439453 C64.658203,37.40625 65.227539,36.3007812 66.2607422,35.9697265 C73.0791015,33.7861328 77.6601562,27.5048827 77.6601562,20.3388672 C77.6601562,11.290039 70.2978515,3.928711 61.25,3.928711 C52.201172,3.928711 44.8398437,11.290039 44.8398437,20.3388672 C44.8398437,27.5683595 49.4726562,33.866211 56.3691405,36.0117188 C57.404297,36.3339845 57.9833985,37.4345703 57.6611327,38.470703 C57.399414,39.3115235 56.6240235,39.8515625 55.7861327,39.8515625 L55.7861328,39.8515625 Z" id="Path" fill="#6464D8"></path>
            <path d="M73.5810548,31.185547 C71.6689453,33.359375 69.1689453,35.038086 66.2607423,35.9697265 C65.227539,36.3007812 64.658203,37.40625 64.9892578,38.439453 C65.3203125,39.4726562 66.4248048,40.0419922 67.4589845,39.7109375 C71.1933595,38.5146485 74.3857423,36.326172 76.7861328,33.4902345 C75.2304688,34.029297 73.5810548,32.8955078 73.5810548,31.185547 Z" id="Path" fill="#5E56E7"></path>
            <path d="M56.3691405,36.0107422 C49.4736327,33.866211 44.8398437,27.5673828 44.8398437,20.3388672 C44.8398437,14.4951172 47.9121095,9.359375 52.5234375,6.451172 C50.8701172,6.35644525 49.8027345,4.663086 50.4248047,3.1328125 C44.7148437,6.73828125 40.9111327,13.100586 40.9111327,20.3388672 C40.9111327,29.2978515 46.654297,37.1035155 55.2021485,39.7626953 C56.236328,40.0839845 57.3388672,39.5078125 57.6611327,38.4697265 C57.9833985,37.4335938 57.4052735,36.3330078 56.3691405,36.0107422 Z" id="Path" fill="#4039B3"></path>
            <path d="M19.5820312,111.637695 L102.917969,111.637695 C106.891601,107.946289 110.375,103.734375 113.258789,99.109375 C113.135742,73.4003905 94.3603515,52.102539 69.7705078,48.0498048 C68.498047,47.8398438 67.5673828,46.736328 67.5673828,45.446289 L67.5673828,41.196289 C67.1044923,41.6484375 66.4726562,41.9277345 65.7753905,41.9277345 L56.7246095,41.9277345 C56.0263672,41.9277345 55.3945312,41.6484375 54.9316405,41.196289 L54.9316405,45.446289 C54.9316405,46.7402345 53.9951172,47.8408203 52.71875,48.0507813 C28.1328125,52.1083985 9.3652345,73.4052735 9.2421875,99.1103515 C12.1259765,103.735352 15.6083985,107.947266 19.5820312,111.637695 Z" id="Path" fill="#5E56E7"></path>
            <path d="M19.5820312,111.637695 L68.321289,111.637695 C67.946289,110.058594 67.796875,108.667969 67.7421875,107.677734 C67.696289,106.844726 67.1044923,106.157226 66.2939453,105.958984 C64.5732423,105.538086 64.1132812,104.344726 64.0234375,103.448242 C63.9570312,102.787109 63.529297,102.229492 62.928711,101.947265 C60.3046875,100.71875 59.5517578,98.272461 59.3378905,96.850586 C59.2441405,96.220703 58.8222655,95.7021485 58.2441405,95.435547 C56.756836,94.751953 56.4101562,93.4296875 56.375,92.466797 C56.3486328,91.751953 55.919922,91.1132812 55.2646485,90.826172 C42.899414,85.404297 43.7714845,73.3935547 44.4326172,69.4384765 C44.5458985,68.7626953 44.2822265,68.076172 43.736328,67.6611328 C43.0214845,67.1171875 42.8115235,66.3720703 42.78125,65.758789 C42.75,65.1376953 42.3964845,64.564453 41.850586,64.2666015 C40.830078,63.7089845 40.571289,62.8320313 40.5634765,62.1064453 C40.5546875,61.366211 40.0634765,60.7294923 39.3798827,60.4433595 C35.1953125,58.6923828 36.625,53.555664 36.6289062,53.5410155 C20.3935547,62.283203 9.3359375,79.4003905 9.2421875,99.1103515 C12.1259765,103.735352 15.6083985,107.947266 19.5820312,111.637695 L19.5820312,111.637695 Z" id="Path" fill="#4039B3"></path>
            <path d="M17.6279297,99.3632812 C17.6279297,103.533203 18.216797,107.566406 19.314453,111.387695 C30.2734375,121.6875 45.0234375,128 61.25,128 C77.4765625,128 92.2265625,121.6875 103.185547,111.387695 C104.283203,107.566406 104.87207,103.533203 104.87207,99.3632812 C104.87207,75.310547 85.303711,55.741211 61.25,55.741211 C37.196289,55.741211 17.6279297,75.310547 17.6279297,99.3632812 Z" id="Path" fill="#D3D1EE"></path>
            <path d="M67.7421875,107.677734 C67.696289,106.844726 67.1044923,106.157226 66.2939453,105.958984 C64.5732422,105.538086 64.1132812,104.344726 64.0234375,103.448242 C63.9570313,102.787109 63.529297,102.229492 62.928711,101.947265 C60.3046875,100.71875 59.5517578,98.272461 59.3378905,96.850586 C59.2441405,96.220703 58.8222655,95.7021485 58.2441405,95.435547 C56.756836,94.751953 56.4101563,93.4296875 56.375,92.466797 C56.3486328,91.751953 55.919922,91.1132812 55.2646485,90.826172 C42.899414,85.404297 43.7714845,73.3935547 44.4326173,69.4384765 C44.5458985,68.7626953 44.2822265,68.076172 43.736328,67.6611328 C43.0214845,67.1171875 42.8115235,66.3720703 42.78125,65.758789 C42.75,65.1376953 42.3964845,64.564453 41.850586,64.2666015 C40.830078,63.7089845 40.571289,62.8320313 40.5634765,62.1064453 C40.5595703,61.751953 40.4414062,61.421875 40.2470703,61.1416015 C26.7753905,68.5732423 17.6279297,82.919922 17.6279297,99.3632812 C17.6279297,103.533203 18.216797,107.567383 19.314453,111.387695 C30.2734375,121.6875 45.0234375,128 61.25,128 C67.897461,128 74.2958985,126.939453 80.2890625,124.980469 C69.5615235,121.3125 67.953125,111.507812 67.7421875,107.677734 Z" id="Path" fill="#D3D1EE"></path>
            <path d="M61.25,62.0595702 C40.680664,62.0595702 23.946289,78.7939453 23.946289,99.3632812 C23.946289,106.674805 26.0615235,113.500977 29.7109375,119.263672 C38.923828,124.808594 49.7138672,128 61.25,128 C72.7861328,128 83.576172,124.808594 92.7890625,119.263672 C96.4384765,113.500976 98.553711,106.674805 98.553711,99.3632812 C98.553711,78.7939453 81.819336,62.0595702 61.25,62.0595702 Z" id="Path" fill="#E8E7FF"></path>
            <path d="M67.7421875,107.677734 C67.696289,106.844727 67.1044923,106.157227 66.2939452,105.958985 C64.5732422,105.538086 64.1132812,104.344727 64.0234375,103.448242 C63.9570312,102.78711 63.529297,102.229492 62.928711,101.947265 C60.3046875,100.71875 59.5517578,98.272461 59.3378905,96.850586 C59.2441405,96.220703 58.8222655,95.7021485 58.2441405,95.435547 C56.756836,94.751953 56.4101562,93.4296875 56.375,92.466797 C56.3486328,91.751953 55.919922,91.1132813 55.2646485,90.826172 C42.899414,85.404297 43.7714845,73.3935548 44.4326172,69.4384765 C44.5458985,68.7626953 44.2822265,68.076172 43.736328,67.6611328 C43.408203,67.4111328 43.189453,67.118164 43.0429688,66.8154298 C31.6572265,73.209961 23.946289,85.4023438 23.946289,99.3642578 C23.946289,106.675781 26.0615235,113.500977 29.7109375,119.263672 C38.923828,124.808594 49.7138672,128 61.25,128 C67.897461,128 74.2958985,126.938476 80.288086,124.979492 C69.5615235,121.311523 67.953125,111.507812 67.7421875,107.677734 L67.7421875,107.677734 Z" id="Path" fill="#D3D1EE"></path>
            <path d="M56.7246095,32.3544922 L65.7753905,32.3544922 C65.930664,32.3544922 66.0830078,32.3710938 66.2314453,32.397461 C65.935547,29.9072265 63.8203125,27.9746095 61.25,27.9746095 C58.6796875,27.9746095 56.564453,29.9072265 56.2685548,32.397461 C56.4160155,32.3710938 56.5683595,32.3544922 56.7246095,32.3544922 L56.7246095,32.3544922 Z" id="Path" fill="#6464D8"></path>
            <path d="M61.5185548,30.3310547 C61.5185548,29.4111328 62.046875,28.6171875 62.814453,28.2285155 C62.321289,28.0664062 61.796875,27.9746095 61.25,27.9746095 C58.6796875,27.9746095 56.564453,29.9072265 56.2685548,32.397461 C56.4169923,32.3701172 56.5683595,32.3544922 56.7246095,32.3544922 L62.6728515,32.3544922 C61.982422,31.9433595 61.5185548,31.1923828 61.5185548,30.3310547 Z" id="Path" fill="#4039B3"></path>
            <path d="M64.064453,80.1669923 C63.475586,80.1669923 62.904297,79.9013673 62.524414,79.421875 L60.4003905,76.741211 L60.4003905,78.2021485 C60.4003905,79.2871095 59.5205077,80.1669923 58.435547,80.1669923 C57.350586,80.1669923 56.4716797,79.2871095 56.4716797,78.2021485 L56.4716797,71.0986327 C56.4716797,70.2626952 57.0009765,69.5185547 57.790039,69.2441405 C58.5791015,68.96875 59.4560547,69.2236327 59.975586,69.8789062 L62.0996095,72.5595702 L62.0996095,71.0986327 C62.0996095,70.013672 62.9785155,69.1347655 64.064453,69.1347655 C65.149414,69.1347655 66.0283203,70.013672 66.0283203,71.0986327 L66.0283203,78.2021485 C66.0283203,79.038086 65.4990235,79.783203 64.709961,80.0576172 C64.498047,80.1308595 64.2802735,80.1669923 64.064453,80.1669923 L64.064453,80.1669923 Z" id="Path" fill="#5E56E7"></path>
            <g id="Group" transform="translate(21.750000, 60.000000)" fill="#5E56E7">
                <path d="M39.5,6.5722655 C38.415039,6.5722655 37.5361328,5.69238275 37.5361328,4.607422 L37.5361328,2.05957025 C37.5361328,0.9746095 38.415039,0.095703 39.5,0.095703 C40.584961,0.095703 41.4638672,0.9746095 41.4638672,2.05957025 L41.4638672,4.607422 C41.4638672,5.69238275 40.584961,6.5722655 39.5,6.5722655 Z" id="Path"></path>
                <path d="M4.7441405,41.328125 L2.196289,41.328125 C1.111328,41.328125 0.23144525,40.4482423 0.23144525,39.3632812 C0.23144525,38.2783202 1.111328,37.399414 2.196289,37.399414 L4.7441405,37.399414 C5.8291015,37.399414 6.7089845,38.2783202 6.7089845,39.3632812 C6.7089845,40.4482423 5.8291015,41.328125 4.7441405,41.328125 Z" id="Path"></path>
                <path d="M76.803711,41.328125 L74.2558595,41.328125 C73.1708985,41.328125 72.2919923,40.4482423 72.2919923,39.3632812 C72.2919923,38.2783202 73.1708985,37.399414 74.2558595,37.399414 L76.803711,37.399414 C77.888672,37.399414 78.7685548,38.2783202 78.7685548,39.3632812 C78.7685548,40.4482423 77.888672,41.328125 76.803711,41.328125 L76.803711,41.328125 Z" id="Path"></path>
            </g>
            <path d="M61.25,60.095703 C39.5976562,60.095703 21.9814453,77.7109375 21.9814453,99.3632812 C21.9814453,105.679688 23.482422,111.650391 26.1435547,116.942383 C28.540039,118.62207 31.0625,120.134766 33.694336,121.462891 C28.8271485,115.40625 25.9101562,107.719727 25.9101562,99.3632813 C25.9101562,79.8779298 41.763672,64.024414 61.25,64.024414 C80.736328,64.024414 96.5898438,79.876953 96.5898438,99.3632812 C96.5898438,107.719727 93.6728515,115.40625 88.805664,121.462891 C91.4375,120.134766 93.959961,118.62207 96.3564453,116.942383 C99.0166015,111.650391 100.518555,105.679688 100.518555,99.3632812 C100.518555,77.7109375 82.9023438,60.095703 61.25,60.095703 Z" id="Path" fill="#4039B3"></path>
            <path d="M33.694336,121.462891 C28.8271485,115.40625 25.9101562,107.719727 25.9101562,99.3632812 C25.9101562,86.0185547 33.345703,74.3789062 44.2919922,68.366211 C44.1689453,68.09375 43.9833985,67.8486327 43.736328,67.6611327 C43.0214845,67.1171875 42.8115235,66.3710938 42.78125,65.7578125 C42.765625,65.439453 42.663086,65.133789 42.4951172,64.8710938 C30.2841797,71.5371095 21.9814453,84.4990235 21.9814453,99.3632812 C21.9814453,105.679688 23.482422,111.650391 26.142578,116.942383 C28.540039,118.62207 31.0625,120.133789 33.694336,121.462891 L33.694336,121.462891 Z" id="Path" fill="#5E56E7"></path>
            <path d="M71.3652345,80.4677735 L59.2558595,93.336914 C59.883789,93.1289063 60.553711,93.0146485 61.25,93.0146485 C64.3095703,93.0146485 66.8691405,95.189453 67.466797,98.0742188 L72.5566405,81.15625 C72.8134765,80.3007813 71.9765625,79.8173828 71.3652345,80.4677735 Z" id="Path" fill="#4039B3"></path>
            <path d="M61.25,105.71289 C58.1904297,105.71289 55.6298828,103.538086 55.033203,100.65332 L49.9433595,117.571289 C49.6865235,118.426758 50.522461,118.910156 51.1347655,118.258789 L63.2441405,105.390625 C62.616211,105.598633 61.946289,105.71289 61.25,105.71289 Z" id="Path" fill="#5E56E7"></path>
            <path d="M61.25,108.724609 C56.0878905,108.724609 51.888672,104.525391 51.888672,99.3632812 C51.888672,94.2021485 56.0878905,90.001953 61.25,90.001953 C66.4121095,90.001953 70.611328,94.2021485 70.611328,99.3632812 C70.611328,104.525391 66.4111328,108.724609 61.25,108.724609 Z" id="Path" fill="#5E56E7"></path>
            <path d="M61.25,108.72461 C63.5361327,108.72461 65.631836,107.900391 67.258789,106.53418 C67.008789,106.257812 66.6777345,106.052735 66.294922,105.958985 C64.5732422,105.53711 64.1132812,104.344727 64.0234375,103.447266 C63.9570313,102.78711 63.5302735,102.228516 62.928711,101.947266 C60.3046875,100.717774 59.5517578,98.272461 59.3388673,96.850586 C59.2441405,96.220703 58.8222655,95.701172 58.2441405,95.435547 C56.756836,94.7509765 56.4111328,93.428711 56.375,92.466797 C56.3623048,92.1367188 56.2617188,91.8251953 56.095703,91.5546875 C53.5634765,93.232422 51.888672,96.1054688 51.888672,99.3632813 C51.888672,104.525391 56.0878905,108.72461 61.25,108.72461 L61.25,108.72461 Z" id="Path" fill="#4039B3"></path>
            <path d="M61.25,95.2402345 C58.9765625,95.2402345 57.126953,97.0898438 57.126953,99.3632812 C57.126953,101.636719 58.9765625,103.486328 61.25,103.486328 C63.5234375,103.486328 65.373047,101.636719 65.373047,99.3632812 C65.373047,97.0898438 63.5234375,95.2402345 61.25,95.2402345 Z" id="Path" fill="#5E56E7"></path>
            <path d="M57.126953,99.3632812 C57.126953,101.636719 58.9765625,103.486328 61.25,103.486328 C62.1835938,103.486328 63.0429688,103.170899 63.7353515,102.645508 C63.540039,102.347656 63.263672,102.103516 62.928711,101.947266 C60.3046875,100.717774 59.5517578,98.272461 59.3388672,96.850586 C59.288086,96.513672 59.1416015,96.209961 58.9296875,95.9580078 C57.8427735,96.701172 57.126953,97.9501953 57.126953,99.3632812 Z" id="Path" fill="#4039B3"></path>
            <path d="M67.6083985,32.1201173 L54.8916015,32.1201173 C53.4726563,32.1201173 52.3222655,33.2705078 52.3222655,34.689453 L52.3222655,39.5927735 C52.3222655,41.0117188 53.4726563,42.1621095 54.8916015,42.1621095 L67.6083985,42.1621095 C69.0263672,42.1621095 70.1767577,41.0117188 70.1767577,39.5927735 L70.1767577,34.689453 C70.1767577,33.2705078 69.0273438,32.1201173 67.6083985,32.1201173 Z" id="Path" fill="#6464D8"></path>
            <path d="M59.7392578,39.5927735 L59.7392578,34.689453 C59.7392578,33.2705078 60.8896485,32.1201173 62.3076172,32.1201173 L54.8916015,32.1201173 C53.4726562,32.1201173 52.3222655,33.2705078 52.3222655,34.689453 L52.3222655,39.5927735 C52.3222655,41.0117188 53.4726562,42.1621095 54.8916015,42.1621095 L62.3076172,42.1621095 C60.8896485,42.1621095 59.7392578,41.0117188 59.7392578,39.5927735 Z" id="Path" fill="#4039B3"></path>
        </g>
    </g>
</svg>