<?xml version="1.0" encoding="UTF-8"?>
<svg width="12px" height="12px" viewBox="0 0 12 12" version="1.1" xmlns="http://www.w3.org/2000/svg" xmlns:xlink="http://www.w3.org/1999/xlink">
    <!-- Generator: Sketch 60 (88103) - https://sketch.com -->
    <title>Icon/Cancel@2x</title>
    <desc>Created with Sketch.</desc>
    <g id="Icon/Cancel" stroke="none" stroke-width="1" fill="none" fill-rule="evenodd">
        <path d="M11.7492697,0.25073035 C11.4149625,-0.0835767832 10.8733743,-0.0835767832 10.5390885,0.25073035 L6,4.78981888 L1.46091147,0.25073035 C1.12660434,-0.0835767832 0.585016087,-0.0835767832 0.25073035,0.25073035 C-0.0835553876,0.585037483 -0.0835767832,1.12662574 0.25073035,1.46091147 L4.78981888,6 L0.25073035,10.5390885 C-0.0835767832,10.8733957 -0.0835767832,11.4149839 0.25073035,11.7492697 C0.585037483,12.0835554 1.12662574,12.0835768 1.46091147,11.7492697 L6,7.21018112 L10.5390885,11.7492697 C10.8733957,12.0835768 11.4149839,12.0835768 11.7492697,11.7492697 C12.0835554,11.4149625 12.0835768,10.8733743 11.7492697,10.5390885 L7.21018112,6 L11.7492697,1.46091147 C12.0835768,1.12660434 12.0835768,0.585016087 11.7492697,0.25073035 Z" id="Cancel" fill="#A0A0A0" fill-rule="nonzero"></path>
    </g>
</svg>