<?xml version="1.0" encoding="UTF-8"?>
<svg width="128px" height="128px" viewBox="0 0 128 128" version="1.1" xmlns="http://www.w3.org/2000/svg" xmlns:xlink="http://www.w3.org/1999/xlink">
    <!-- Generator: Sketch 60 (88103) - https://sketch.com -->
    <title>Home Card/Icon/Drama@2x</title>
    <desc>Created with Sketch.</desc>
    <g id="Home-Card/Icon/Drama" stroke="none" stroke-width="1" fill="none" fill-rule="evenodd">
        <g id="001-theater" transform="translate(0.000000, 16.000000)" fill-rule="nonzero">
            <path d="M50.3351762,70.0986297 L50.3351762,61.7132356 L26.9758099,68.3018139 C26.9758099,68.3018139 28.6727604,58.3190812 40.8517703,54.8253149 C44.5452673,53.8271683 47.7396911,53.8271683 50.3351762,54.3262416 L50.3351762,19.7860119 L62.0148594,19.7860119 C60.7171168,15.8927842 59.5192396,12.7982257 58.5208396,10.7018139 C56.8238891,7.20779406 55.0268198,9.50393663 51.1335921,12.8980911 C48.3383762,15.1939802 41.2507248,20.2853386 30.5694416,23.080301 C19.887905,25.9753822 11.3030337,25.1767129 7.70914851,24.5777743 C2.61804356,23.6792396 -0.0773069307,22.5812277 0.222289109,26.4744554 C0.422019802,29.8686099 1.22043564,35.1594455 3.1173703,42.247097 C7.11046337,57.4208 20.3872317,86.6699406 45.5436673,79.8816317 C52.1322455,78.0848158 56.8241426,74.590796 60.0185663,70.0986297 L50.3351762,70.0986297 L50.3351762,70.0986297 Z M12.7006416,42.4465743 L30.5694416,37.7546772 C30.5694416,37.7546772 30.0703683,44.642598 23.3819248,46.4396673 C16.6937347,48.1366178 12.7006416,42.4465743 12.7006416,42.4465743 Z" id="Shape" fill="#E8E7FF"></path>
            <path d="M117.917655,20.4848158 C113.125893,21.2834851 101.745806,22.381497 87.6703683,18.5881347 C73.5949307,14.7947723 64.2111366,8.20619406 60.5176396,5.11163564 C55.226804,0.719334653 52.9309149,-2.27561188 50.7346376,2.3164198 C48.7380911,6.40937822 46.1426059,12.9979564 43.6469861,22.2816317 C38.2562851,42.3467089 34.2631921,84.6731406 67.5054257,93.5576079 C100.847525,102.442075 118.516594,63.8093941 123.907295,43.7443168 C126.402915,34.4603881 127.500927,27.472602 127.800523,22.9804356 C128.199731,17.7894653 124.705964,19.2869386 117.917655,20.4848158 Z M51.0339802,37.1557386 C51.0339802,37.1557386 56.3248158,28.8702099 65.3091485,31.465695 C74.2934812,34.0611802 74.9922851,43.9440475 74.9922851,43.9440475 L51.0339802,37.1557386 Z M72.7962614,73.592396 C57.1234851,69.0003644 54.7277307,56.5220119 54.7277307,56.5220119 L96.7545663,68.201695 C96.7545663,68.3015604 88.2693069,78.0845624 72.7962614,73.592396 Z M87.9697109,48.1366178 C87.9697109,48.1366178 93.0608158,39.9509545 101.645941,42.4465743 C110.231065,45.0420594 110.929869,54.9249267 110.929869,54.9249267 L87.9697109,48.1366178 Z" id="Shape" fill="#5E56E7"></path>
            <path d="M73.9941386,73.8919921 L72.7962614,73.592396 C57.1234851,69.0003644 54.7277307,56.5220119 54.7277307,56.5220119 L76.8892198,62.7111287 L88.2693069,18.6877465 C88.0695762,18.5878812 87.870099,18.5878812 87.6703683,18.5878812 C73.5949307,14.7945188 64.2111366,8.20594059 60.5176396,5.11138218 C55.226804,0.719081188 52.9309149,-2.27586535 50.7346376,2.31616634 C48.7380911,6.40912475 46.1426059,12.997703 43.6469861,22.2813782 C38.4560158,41.5477861 34.5627881,81.2787327 63.8119287,92.3594772 L68.8031683,93.8569505 L73.9941386,73.8919921 L73.9941386,73.8919921 Z M51.0339802,37.1557386 C51.0339802,37.1557386 56.3248158,28.8702099 65.3091485,31.465695 C74.2934812,34.0611802 74.9922851,43.9440475 74.9922851,43.9440475 L51.0339802,37.1557386 Z" id="Shape" fill="#4039B3"></path>
            <path d="M42.0496475,64.1089901 L26.9758099,68.4014257 C26.9758099,68.4014257 28.5731485,59.0176317 39.6536396,55.3241347 L31.0685149,23.080301 C30.8687842,23.1801663 30.6693069,23.1801663 30.3697109,23.2800317 C19.6881743,26.1751129 11.103303,25.3764436 7.50941782,24.777505 C2.41831287,23.8789703 -0.277037624,22.7809584 0.0225584158,26.6741861 C0.222289109,30.0683406 1.02070495,35.3591762 2.9176396,42.4468277 C7.11046337,57.4208 20.3872317,86.6699406 45.5434139,79.8816317 L46.1423525,79.681901 C46.1423525,79.681901 42.0496475,64.1089901 42.0496475,64.1089901 Z M12.7006416,42.4465743 L30.5694416,37.7546772 C30.5694416,37.7546772 30.0703683,44.642598 23.3819248,46.4396673 C16.6937347,48.1366178 12.7006416,42.4465743 12.7006416,42.4465743 Z" id="Shape" fill="#D3D1EE"></path>
        </g>
    </g>
</svg>