<?xml version="1.0" encoding="UTF-8"?>
<svg width="128px" height="128px" viewBox="0 0 128 128" version="1.1" xmlns="http://www.w3.org/2000/svg" xmlns:xlink="http://www.w3.org/1999/xlink">
    <!-- Generator: Sketch 60 (88103) - https://sketch.com -->
    <title>Home Card/Icon/Fiction@2x</title>
    <desc>Created with Sketch.</desc>
    <g id="Home-Card/Icon/Fiction" stroke="none" stroke-width="1" fill="none" fill-rule="evenodd">
        <g id="007-flask" transform="translate(11.000000, 0.000000)" fill-rule="nonzero">
            <path d="M104.202845,109.8885 L65.0719212,44.3485 L65.0719212,8 C65.0719212,6.8955 64.1694897,6 63.0541872,6 C61.9388847,6 61.0364532,6.8955 61.0364532,8 L44.8945813,8 C44.8945813,6.8955 43.9921498,6 42.8768473,6 C41.7615448,6 40.8591133,6.8955 40.8591133,8 L40.8591133,44.3485 L1.72818916,109.8885 C-0.516035468,113.64525 -0.55159803,118.15225 1.62957241,121.94425 C3.81074286,125.73625 7.7417931,128 12.1457498,128 L93.7850325,128 C98.1889892,128 102.120039,125.73625 104.30121,121.94425 C106.482633,118.15225 106.447322,113.6455 104.202845,109.8885 Z" id="Path" fill="#E8E7FF"></path>
            <path d="M52.9655172,8 L44.8945813,8 C44.8945813,6.8955 43.9921498,6 42.8768473,6 C41.7615448,6 40.8591133,6.8955 40.8591133,8 L40.8591133,44.3485 L1.72818916,109.8885 C-0.516035468,113.64525 -0.55159803,118.15225 1.62957241,121.94425 C3.81074286,125.73625 7.7417931,128 12.1457498,128 L52.9655172,128 L52.9655172,8 Z" id="Path" fill="#D3D1EE"></path>
            <path d="M97.259066,113.96275 L85.925202,94.98125 C85.5625143,94.37275 84.9024631,93.99975 84.1891941,93.99975 L21.7418404,93.99975 C21.0285714,93.99975 20.3685202,94.37275 20.0058325,94.98125 L8.67373399,113.96275 C7.91506601,115.23225 7.90144631,116.69625 8.64018916,117.98325 C9.38120197,119.2645 10.6579232,119.99975 12.1454975,119.99975 L93.7847803,119.99975 C95.2723547,119.99975 96.5493281,119.2645 97.2921064,117.97925 C98.0295882,116.69725 98.017734,115.23325 97.259066,113.96275 Z" id="Path" fill="#5E56E7"></path>
            <path d="M52.9655172,94 L21.7418404,94 C21.0285714,94 20.3685202,94.373 20.0058325,94.9815 L8.67373399,113.963 C7.91506601,115.2325 7.90144631,116.6965 8.64018916,117.9835 C9.38120197,119.26475 10.6579232,120 12.1454975,120 L52.9655172,120 L52.9655172,94 Z" id="Path" fill="#4039B3"></path>
            <path d="M59.0187192,66 L46.9123153,66 C45.7970128,66 44.8945813,65.1045 44.8945813,64 C44.8945813,62.8955 45.7970128,62 46.9123153,62 L59.0187192,62 C60.1340217,62 61.0364532,62.8955 61.0364532,64 C61.0364532,65.1045 60.1340217,66 59.0187192,66 Z" id="Path" fill="#5E56E7"></path>
            <path d="M59.0187192,76 L46.9123153,76 C45.7970128,76 44.8945813,75.1045 44.8945813,74 C44.8945813,72.8955 45.7970128,72 46.9123153,72 L59.0187192,72 C60.1340217,72 61.0364532,72.8955 61.0364532,74 C61.0364532,75.1045 60.1340217,76 59.0187192,76 Z" id="Path" fill="#5E56E7"></path>
            <path d="M59.0187192,86 L46.9123153,86 C45.7970128,86 44.8945813,85.1045 44.8945813,84 C44.8945813,82.8955 45.7970128,82 46.9123153,82 L59.0187192,82 C60.1340217,82 61.0364532,82.8955 61.0364532,84 C61.0364532,85.1045 60.1340217,86 59.0187192,86 Z" id="Path" fill="#5E56E7"></path>
            <ellipse id="Oval" fill="#E8E7FF" cx="61.0364532" cy="108" rx="4.03546798" ry="4"></ellipse>
            <ellipse id="Oval" fill="#D3D1EE" cx="38.8413793" cy="102" rx="4.03546798" ry="4"></ellipse>
            <ellipse id="Oval" fill="#E8E7FF" cx="75.1605911" cy="104" rx="2.01773399" ry="2"></ellipse>
            <ellipse id="Oval" fill="#D3D1EE" cx="44.8945813" cy="110" rx="2.01773399" ry="2"></ellipse>
            <ellipse id="Oval" fill="#D3D1EE" cx="26.7349754" cy="106" rx="2.01773399" ry="2"></ellipse>
            <path d="M65.0719212,0 L40.8591133,0 C38.6302739,0 36.8236453,1.79075 36.8236453,4 L36.8236453,4 C36.8236453,6.20925 38.6302739,8 40.8591133,8 L65.0719212,8 C67.3007606,8 69.1073892,6.20925 69.1073892,4 L69.1073892,4 C69.1073892,1.79075 67.3005084,0 65.0719212,0 Z" id="Path" fill="#BDBAF7"></path>
        </g>
    </g>
</svg>