<?xml version="1.0" encoding="UTF-8"?>
<svg width="128px" height="128px" viewBox="0 0 128 128" version="1.1" xmlns="http://www.w3.org/2000/svg" xmlns:xlink="http://www.w3.org/1999/xlink">
    <!-- Generator: Sketch 60 (88103) - https://sketch.com -->
    <title>Home Card/Icon/History@2x</title>
    <desc>Created with Sketch.</desc>
    <g id="Home-Card/Icon/History" stroke="none" stroke-width="1" fill="none" fill-rule="evenodd">
        <g id="005-scroll" fill-rule="nonzero">
            <g id="Group" transform="translate(1.996101, 24.202729)">
                <polygon id="Path" fill="#E8E7FF" points="36.5493645 2.22839766 35.4480156 11.0386901 34.3466667 2.22839766 31.0428694 2.22839766 28.8401715 19.849232 26.6377232 2.22839766 17.8271813 2.22839766 17.8271813 77.1166316 82.8037739 77.1166316 83.9051228 68.3063392 85.0064717 77.1166316 88.310269 77.1166316 90.5129669 59.4957973 92.7154152 77.1166316 105.931103 77.1166316 105.931103 2.22839766"></polygon>
                <rect id="Rectangle" fill="#CFCEEE" x="105.931103" y="0.0256998051" width="17.6208343" height="79.2933801"></rect>
                <rect id="Rectangle" fill="#CFCEEE" x="0.206596491" y="0.0256998051" width="17.6208343" height="79.2933801"></rect>
            </g>
            <g id="Group" transform="translate(1.996101, 26.198830)" fill="#AEACDA">
                <rect id="Rectangle" x="0.206596491" y="0.232296296" width="6.60784405" height="74.8882339"></rect>
                <rect id="Rectangle" x="105.931103" y="0.232296296" width="6.60784405" height="74.8882339"></rect>
            </g>
            <g id="Group" transform="translate(15.220273, 26.198830)" fill="#E8E7FF">
                <rect id="Rectangle" x="105.92237" y="0.232296296" width="4.4051462" height="74.8882339"></rect>
                <rect id="Rectangle" x="0.197863548" y="0.232296296" width="4.4051462" height="74.8882339"></rect>
            </g>
            <rect id="Rectangle" fill="#C4C2E4" x="19.8232827" y="26.4311267" width="4.4051462" height="74.8882339"></rect>
            <rect id="Rectangle" fill="#C4C2E4" x="103.522058" y="26.4311267" width="4.4051462" height="74.8882339"></rect>
            <g id="Group" fill="#5E56E7">
                <path d="M19.8232827,26.4311267 L2.20269786,26.4311267 C0.986323587,26.4311267 0,25.4448031 0,24.2284288 L0,24.2284288 C0,23.0120546 0.986323587,22.025731 2.20269786,22.025731 L19.8235322,22.025731 C21.0399064,22.025731 22.02623,23.0120546 22.02623,24.2284288 L22.02623,24.2284288 C22.0259805,25.4448031 21.0396569,26.4311267 19.8232827,26.4311267 Z" id="Path"></path>
                <path d="M13.2156881,22.0259805 L8.8102924,22.0259805 L7.0459883,4.3834386 C6.81144639,2.03652242 8.65434698,0 11.0129903,0 L11.0129903,0 C13.3716335,0 15.2145341,2.03652242 14.9797427,4.3834386 L13.2156881,22.0259805 Z" id="Path"></path>
            </g>
            <path d="M13.2156881,22.0259805 L8.8102924,22.0259805 C7.59391813,22.0259805 6.60759454,21.0396569 6.60759454,19.8232827 L6.60759454,19.8232827 C6.60759454,18.6069084 7.59391813,17.6205848 8.8102924,17.6205848 L13.2154386,17.6205848 C14.4318129,17.6205848 15.4181365,18.6069084 15.4181365,19.8232827 L15.4181365,19.8232827 C15.4181365,21.0396569 14.4320624,22.0259805 13.2156881,22.0259805 Z" id="Path" fill="#E8E7FF"></path>
            <path d="M8.8102924,22.0259805 L8.8102924,22.0259805 C7.59391813,22.0259805 6.60759454,21.0396569 6.60759454,19.8232827 L6.60759454,19.8232827 C6.60759454,18.6069084 7.59391813,17.6205848 8.8102924,17.6205848 L8.8102924,17.6205848 C10.0266667,17.6205848 11.0129903,18.6069084 11.0129903,19.8232827 L11.0129903,19.8232827 C11.0129903,21.0396569 10.0266667,22.0259805 8.8102924,22.0259805 Z" id="Path" fill="#C4C2E4"></path>
            <g id="Group" transform="translate(0.000000, 101.302144)" fill="#5E56E7">
                <path d="M2.20269786,0.0172163743 L19.8235322,0.0172163743 C21.0399064,0.0172163743 22.02623,1.00353996 22.02623,2.21991423 L22.02623,2.21991423 C22.02623,3.4362885 21.0399064,4.42261209 19.8235322,4.42261209 L2.20269786,4.42261209 C0.986323587,4.42261209 0,3.4362885 0,2.21991423 L0,2.21991423 C0,1.00353996 0.986323587,0.0172163743 2.20269786,0.0172163743 Z" id="Path"></path>
                <path d="M8.8102924,4.42236257 L13.2154386,4.42236257 L14.9797427,22.0649045 C15.2145341,24.4118207 13.3716335,26.4483431 11.0129903,26.4483431 L11.0129903,26.4483431 C8.65434698,26.4483431 6.81144639,24.4118207 7.04623782,22.0649045 L8.8102924,4.42236257 Z" id="Path"></path>
            </g>
            <path d="M8.8102924,105.724507 L13.2154386,105.724507 C14.4318129,105.724507 15.4181365,106.71083 15.4181365,107.927205 L15.4181365,107.927205 C15.4181365,109.143579 14.4318129,110.129903 13.2154386,110.129903 L8.8102924,110.129903 C7.59391813,110.129903 6.60759454,109.143579 6.60759454,107.927205 L6.60759454,107.927205 C6.60784405,106.71083 7.59391813,105.724507 8.8102924,105.724507 Z" id="Path" fill="#E8E7FF"></path>
            <g id="Group" transform="translate(105.543860, 0.000000)" fill="#5E56E7">
                <path d="M20.0039298,26.4311267 L2.38309552,26.4311267 C1.16672125,26.4311267 0.180397661,25.4448031 0.180397661,24.2284288 L0.180397661,24.2284288 C0.180397661,23.0120546 1.16672125,22.025731 2.38309552,22.025731 L20.0039298,22.025731 C21.2203041,22.025731 22.2066277,23.0120546 22.2066277,24.2284288 L22.2066277,24.2284288 C22.2066277,25.4448031 21.2203041,26.4311267 20.0039298,26.4311267 Z" id="Path"></path>
                <path d="M13.3963353,22.0259805 L8.99118908,22.0259805 L7.22688499,4.3834386 C6.99209357,2.03652242 8.83499415,0 11.1936374,0 L11.1936374,0 C13.5522807,0 15.3951813,2.03652242 15.1603899,4.3834386 L13.3963353,22.0259805 Z" id="Path"></path>
            </g>
            <path d="M118.940195,22.0259805 L114.535049,22.0259805 C113.318674,22.0259805 112.332351,21.0396569 112.332351,19.8232827 L112.332351,19.8232827 C112.332351,18.6069084 113.318674,17.6205848 114.535049,17.6205848 L118.940195,17.6205848 C120.156569,17.6205848 121.142893,18.6069084 121.142893,19.8232827 L121.142893,19.8232827 C121.142643,21.0396569 120.156569,22.0259805 118.940195,22.0259805 Z" id="Path" fill="#E8E7FF"></path>
            <g id="Group" transform="translate(105.543860, 101.302144)" fill="#5E56E7">
                <path d="M2.38334503,0.0172163743 L20.0041793,0.0172163743 C21.2205536,0.0172163743 22.2068772,1.00353996 22.2068772,2.21991423 L22.2068772,2.21991423 C22.2068772,3.4362885 21.2205536,4.42261209 20.0041793,4.42261209 L2.38334503,4.42261209 C1.16697076,4.42261209 0.180647173,3.4362885 0.180647173,2.21991423 L0.180647173,2.21991423 C0.180647173,1.00353996 1.16697076,0.0172163743 2.38334503,0.0172163743 Z" id="Path"></path>
                <path d="M8.99093957,4.42236257 L13.3960858,4.42236257 L15.1603899,22.0649045 C15.3949318,24.4118207 13.5522807,26.4483431 11.1936374,26.4483431 L11.1936374,26.4483431 C8.83499415,26.4483431 6.99209357,24.4118207 7.22688499,22.0649045 L8.99093957,4.42236257 Z" id="Path"></path>
            </g>
            <path d="M114.534799,105.724507 L118.939945,105.724507 C120.15632,105.724507 121.142643,106.71083 121.142643,107.927205 L121.142643,107.927205 C121.142643,109.143579 120.15632,110.129903 118.939945,110.129903 L114.534799,110.129903 C113.318425,110.129903 112.332101,109.143579 112.332101,107.927205 L112.332101,107.927205 C112.332351,106.71083 113.318425,105.724507 114.534799,105.724507 Z" id="Path" fill="#E8E7FF"></path>
            <g id="Group" transform="translate(0.000000, 21.957115)" fill="#4039B3">
                <path d="M8.8102924,4.4740117 L2.20269786,4.4740117 C0.986323587,4.4740117 0,3.48768811 0,2.27131384 L0,2.27131384 C0,1.05493957 0.986323587,0.0686159844 2.20269786,0.0686159844 L8.8102924,0.0686159844 C10.0266667,0.0686159844 11.0129903,1.05493957 11.0129903,2.27131384 L11.0129903,2.27131384 C11.0129903,3.48768811 10.0266667,4.4740117 8.8102924,4.4740117 Z" id="Path"></path>
                <path d="M8.8102924,83.7673918 L2.20269786,83.7673918 C0.986323587,83.7673918 0,82.7810682 0,81.564694 L0,81.564694 C0,80.3483197 0.986323587,79.3619961 2.20269786,79.3619961 L8.8102924,79.3619961 C10.0266667,79.3619961 11.0129903,80.3483197 11.0129903,81.564694 L11.0129903,81.564694 C11.0129903,82.7813177 10.0266667,83.7673918 8.8102924,83.7673918 Z" id="Path"></path>
                <path d="M114.534799,4.4740117 L107.926955,4.4740117 C106.710581,4.4740117 105.724257,3.48768811 105.724257,2.27131384 L105.724257,2.27131384 C105.724257,1.05493957 106.710581,0.0686159844 107.926955,0.0686159844 L114.534799,0.0686159844 C115.751173,0.0686159844 116.737497,1.05493957 116.737497,2.27131384 L116.737497,2.27131384 C116.737497,3.48768811 115.751423,4.4740117 114.534799,4.4740117 Z" id="Path"></path>
                <path d="M114.534799,83.7673918 L107.926955,83.7673918 C106.710581,83.7673918 105.724257,82.7810682 105.724257,81.564694 L105.724257,81.564694 C105.724257,80.3483197 106.710581,79.3619961 107.926955,79.3619961 L114.534799,79.3619961 C115.751173,79.3619961 116.737497,80.3483197 116.737497,81.564694 L116.737497,81.564694 C116.737497,82.7813177 115.751423,83.7673918 114.534799,83.7673918 Z" id="Path"></path>
            </g>
            <g id="Group" transform="translate(6.487329, 17.465887)" fill="#C4C2E4">
                <path d="M2.32296296,92.6637661 L2.32296296,92.6637661 C1.10658869,92.6637661 0.120265107,91.6774425 0.120265107,90.4610682 L0.120265107,90.4610682 C0.120265107,89.244694 1.10658869,88.2583704 2.32296296,88.2583704 L2.32296296,88.2583704 C3.53933723,88.2583704 4.52566082,89.244694 4.52566082,90.4610682 L4.52566082,90.4610682 C4.52566082,91.677692 3.53933723,92.6637661 2.32296296,92.6637661 Z" id="Path"></path>
                <path d="M108.04747,4.56009357 L108.04747,4.56009357 C106.831096,4.56009357 105.844772,3.57376998 105.844772,2.35739571 L105.844772,2.35739571 C105.844772,1.14102144 106.831096,0.154697856 108.04747,0.154697856 L108.04747,0.154697856 C109.263844,0.154697856 110.250168,1.14102144 110.250168,2.35739571 L110.250168,2.35739571 C110.250168,3.57376998 109.264094,4.56009357 108.04747,4.56009357 Z" id="Path"></path>
                <path d="M108.04747,92.6637661 L108.04747,92.6637661 C106.831096,92.6637661 105.844772,91.6774425 105.844772,90.4610682 L105.844772,90.4610682 C105.844772,89.244694 106.831096,88.2583704 108.04747,88.2583704 L108.04747,88.2583704 C109.263844,88.2583704 110.250168,89.244694 110.250168,90.4610682 L110.250168,90.4610682 C110.250168,91.677692 109.264094,92.6637661 108.04747,92.6637661 Z" id="Path"></path>
            </g>
        </g>
    </g>
</svg>