<?xml version="1.0" encoding="UTF-8"?>
<svg width="128px" height="128px" viewBox="0 0 128 128" version="1.1" xmlns="http://www.w3.org/2000/svg" xmlns:xlink="http://www.w3.org/1999/xlink">
    <!-- Generator: Sketch 60 (88103) - https://sketch.com -->
    <title>Home Card/Icon/Humour@2x</title>
    <desc>Created with Sketch.</desc>
    <g id="Home-Card/Icon/Humour" stroke="none" stroke-width="1" fill="none" fill-rule="evenodd">
        <g id="002-happy" fill-rule="nonzero">
            <circle id="Oval" fill="#5E56E7" cx="63.9908186" cy="63.9908186" r="63.9908186"></circle>
            <path d="M21.9790042,64.0332152 C21.9790042,87.2328101 40.787173,106.040979 63.9867679,106.040979 C87.187443,106.040979 105.995612,87.2328101 105.995612,64.0332152 L21.9790042,64.0332152 L21.9790042,64.0332152 Z" id="Path" fill="#FFFFFF"></path>
            <g id="Group" transform="translate(45.097046, 64.000000)" fill="#D3D1EE">
                <path d="M0.196590717,0.0332151899 C0.196590717,12.5726245 0.196590717,25.1120338 0.196590717,37.6517131 C1.82332489,38.4621097 3.51081857,39.1663797 5.24881013,39.763443 C5.24881013,26.5197637 5.24881013,13.2768945 5.24881013,0.0332151899 L0.196590717,0.0332151899 Z" id="Path"></path>
                <path d="M31.411038,0.0332151899 C31.411038,13.4032743 31.411038,26.7722532 31.411038,40.1423122 C33.1479494,39.6006076 34.8313924,38.9398143 36.4632574,38.1872068 C36.4632574,25.4687595 36.4632574,12.7516624 36.4632574,0.0332151899 L31.411038,0.0332151899 L31.411038,0.0332151899 Z" id="Path"></path>
            </g>
            <g id="Group" transform="translate(29.164557, 27.814346)" fill="#E8E7FF">
                <path d="M30.0235612,15.0664641 C29.5688101,6.62629536 23.5447089,0.603004219 15.1056203,0.148523207 C6.68462447,-0.305147679 0.604894515,7.31058228 0.187679325,15.0664641 C0.0118818565,18.3239831 5.06491139,18.3069705 5.23989873,15.0664641 C5.92499578,2.35017722 24.2875949,2.35017722 24.9716118,15.0664641 C25.1463291,18.3069705 30.1993586,18.3239831 30.0235612,15.0664641 L30.0235612,15.0664641 Z" id="Path"></path>
                <path d="M66.4263291,15.0664641 C65.9715781,6.62629536 59.9474768,0.603004219 51.5083882,0.148523207 C43.0873924,-0.305147679 37.0087426,7.31058228 36.5904473,15.0664641 C36.4146498,18.3239831 41.4676793,18.3069705 41.6426667,15.0664641 C42.3277637,2.35017722 60.6892827,2.35017722 61.3743797,15.0664641 C61.549097,18.3069705 66.6023966,18.3239831 66.4263291,15.0664641 L66.4263291,15.0664641 Z" id="Path"></path>
            </g>
        </g>
    </g>
</svg>