<?xml version="1.0" encoding="UTF-8"?>
<svg width="128px" height="128px" viewBox="0 0 128 128" version="1.1" xmlns="http://www.w3.org/2000/svg" xmlns:xlink="http://www.w3.org/1999/xlink">
    <!-- Generator: Sketch 60 (88103) - https://sketch.com -->
    <title>Home Card/Icon/Philosophy@2x</title>
    <desc>Created with Sketch.</desc>
    <g id="Home-Card/Icon/Philosophy" stroke="none" stroke-width="1" fill="none" fill-rule="evenodd">
        <g id="004-yin-yang" fill-rule="nonzero">
            <path d="M96,96 C96,113.673 81.673,128 64,128 C28.654,128 0,99.346 0,64 C0,28.93 28.20925,0.45325 63.174,0.0105 C82.997,4.5925 96,78.327 96,96 Z" id="Path" fill="#E8E7FF"></path>
            <path d="M96,96 C96,78.57375 83.3575,6.642 64,0.2445 L64,128 C81.673,128 96,113.673 96,96 Z" id="Path" fill="#D3D1EE"></path>
            <path d="M64,107.7495 C57.52125,107.7495 52.2505,102.47875 52.2505,96 C52.2505,89.52125 57.52125,84.2505 64,84.2505 C70.47875,84.2505 75.7495,89.52125 75.7495,96 C75.7495,102.47875 70.47875,107.7495 64,107.7495 Z" id="Path" fill="#4039B3"></path>
            <path d="M75.7495,96 C75.7495,89.5215 70.47875,84.2505 64,84.2505 L64,107.74925 C70.47875,107.7495 75.7495,102.4785 75.7495,96 Z" id="Path" fill="#5E56E7"></path>
            <path d="M64.826,127.9895 C82.11725,127.5515 96,113.397 96,96 C96,78.327 81.673,64 64,64 C46.327,64 32,49.673 32,32 C32,14.327 46.327,0 64,0 C99.346,0 128,28.654 128,64 C128,99.07 99.79075,127.54675 64.826,127.9895 Z" id="Path" fill="#4039B3"></path>
            <path d="M96,96 C96,113.397 82.11725,127.5515 64.826,127.9895 C99.79075,127.54675 128,99.06975 128,64 C128,28.654 99.346,-2.84217094e-14 64,-2.84217094e-14 L64,64 C81.673,64 96,78.327 96,96 Z" id="Path" fill="#5E56E7"></path>
            <path d="M64,43.7495 C57.52125,43.7495 52.2505,38.47875 52.2505,32 C52.2505,25.52125 57.52125,20.2505 64,20.2505 C70.47875,20.2505 75.7495,25.52125 75.7495,32 C75.7495,38.47875 70.47875,43.7495 64,43.7495 Z" id="Path" fill="#F5FAFC"></path>
            <path d="M75.7495,32 C75.7495,25.5215 70.47875,20.2505 64,20.2505 L64,43.74925 C70.47875,43.7495 75.7495,38.47875 75.7495,32 Z" id="Path" fill="#D3D1EE"></path>
        </g>
    </g>
</svg>