<?xml version="1.0" encoding="UTF-8"?>
<svg width="128px" height="128px" viewBox="0 0 128 128" version="1.1" xmlns="http://www.w3.org/2000/svg" xmlns:xlink="http://www.w3.org/1999/xlink">
    <!-- Generator: Sketch 60 (88103) - https://sketch.com -->
    <title>Home Card/Icon/Politics@2x</title>
    <desc>Created with Sketch.</desc>
    <g id="Home-Card/Icon/Politics" stroke="none" stroke-width="1" fill="none" fill-rule="evenodd">
        <g id="003-candidate" transform="translate(16.000000, 0.000000)" fill-rule="nonzero">
            <circle id="Oval" fill="#4039B3" cx="48" cy="16" r="16"></circle>
            <path d="M59.4666667,37.3333333 L36.5333333,37.3333333 C28.1493333,37.3333333 21.3333333,44.4426667 21.3333333,53.1733333 L21.3333333,57.3333333 C21.3333333,59.5413333 23.1253333,61.3333333 25.3333333,61.3333333 C27.5413333,61.3333333 29.3333333,59.5413333 29.3333333,57.3333333 L66.6666667,57.3333333 C66.6666667,59.5413333 68.4586667,61.3333333 70.6666667,61.3333333 C72.8746667,61.3333333 74.6666667,59.5413333 74.6666667,57.3333333 L74.6666667,53.1733333 C74.6666667,44.4426667 67.8506667,37.3333333 59.4666667,37.3333333 Z" id="Path" fill="#5E56E7"></path>
            <path d="M89.8346667,54.8853333 C89.072,53.904 87.904,53.3333333 86.6666667,53.3333333 L9.33333333,53.3333333 C8.096,53.3333333 6.928,53.904 6.16533333,54.8853333 C5.408,55.8666667 5.152,57.1413333 5.46133333,58.3413333 L22.7946667,125.008 C23.2533333,126.768 24.8426667,128 26.6666667,128 L69.3333333,128 C71.1573333,128 72.7466667,126.768 73.2053333,125.008 L90.5386667,58.3413333 C90.848,57.1413333 90.5866667,55.8666667 89.8346667,54.8853333 L89.8346667,54.8853333 Z" id="Path" fill="#E8E7FF"></path>
            <path d="M68.512,70.9013333 C67.7493333,69.9093333 66.576,69.3333333 65.3333333,69.3333333 L30.6666667,69.3333333 C29.424,69.3333333 28.2506667,69.9093333 27.488,70.9013333 C26.7306667,71.888 26.48,73.1733333 26.8,74.3733333 L36.1333333,109.04 C36.608,110.784 38.192,112 40,112 L56,112 C57.808,112 59.392,110.784 59.8666667,109.04 L69.2,74.3733333 C69.52,73.1733333 69.264,71.888 68.512,70.9013333 Z" id="Path" fill="#FAFAFA"></path>
            <path d="M90.6666667,128 L5.33333333,128 C2.384,128 0,125.610667 0,122.666667 C0,119.722667 2.384,117.333333 5.33333333,117.333333 L90.6666667,117.333333 C93.616,117.333333 96,119.722667 96,122.666667 C96,125.610667 93.616,128 90.6666667,128 Z" id="Path" fill="#D3D1EE"></path>
        </g>
    </g>
</svg>