<?xml version="1.0" encoding="UTF-8"?>
<svg width="16px" height="16px" viewBox="0 0 16 16" version="1.1" xmlns="http://www.w3.org/2000/svg" xmlns:xlink="http://www.w3.org/1999/xlink">
    <!-- Generator: Sketch 60 (88103) - https://sketch.com -->
    <title>Icon/Search@2x</title>
    <desc>Created with Sketch.</desc>
    <g id="Icon/Search" stroke="none" stroke-width="1" fill="none" fill-rule="evenodd">
        <path d="M15.8589788,15.047134 L12.6068598,11.8220218 C15.0321838,9.01138186 14.8943938,4.76662381 12.2214887,2.09377383 C10.843589,0.688949888 8.99747885,-5.32907052e-15 7.17809999,-5.32907052e-15 C5.35872112,-5.32907052e-15 3.512611,0.688949888 2.10797997,2.09484859 C-0.702659991,4.90548855 -0.702659991,9.42582655 2.10797997,12.2364665 C3.48587975,13.6132915 5.33198987,14.3302403 7.17809999,14.3302403 C8.83157972,14.3302403 10.5131686,13.7510815 11.8348501,12.5938662 L15.0869691,15.8459852 C15.1698581,15.9288742 15.307648,15.9837752 15.4454435,15.9837752 C15.583239,15.9837752 15.7210235,15.9288742 15.8308145,15.8179973 C16.0514935,15.6253063 16.0514935,15.2668374 15.8588024,15.0472277 L15.8589788,15.047134 Z M2.87861176,11.4364855 C1.72139641,10.3061667 1.11534097,8.76358036 1.11534097,7.16499616 C1.11534097,5.56641196 1.74939533,4.02393583 2.87861176,2.8653977 C4.03690187,1.70818235 5.55259162,1.10212691 7.17821022,1.10212691 C8.80382882,1.10212691 10.3192705,1.73618128 11.4778087,2.8653977 C12.6070527,4.02368781 13.2410795,5.53937756 13.2410795,7.16499616 C13.2410795,8.79061476 12.6070251,10.3060565 11.4778087,11.4645946 C10.3195186,12.5938386 8.77690466,13.2278654 7.17821022,13.2278654 C5.57951578,13.2278654 4.03714989,12.593811 2.87861176,11.4365957 L2.87861176,11.4364855 Z" id="Search" fill="#A0A0A0" fill-rule="nonzero"></path>
    </g>
</svg>